<svg width="100" height="100" viewBox="0 0 100 100" fill="none" xmlns="http://www.w3.org/2000/svg">
  <g transform="translate(6, 24)">
    <!-- First B -->
    <path d="M0 5C0 2.23858 2.23858 0 5 0H25C35 0 42 7 42 15C42 20 38 24 34 26C38 28 42 32 42 37C42 45 35 52 25 52H5C2.23858 52 0 49.7614 0 47V5Z" fill="black"/>
    <path d="M12 10C12 8 14 7 17 7C22 7 28 9 28 15C28 21 22 23 17 23C14 23 12 22 12 20V10Z" fill="white"/>
    <path d="M12 32C12 30 14 29 17 29C22 29 28 31 28 37C28 43 22 45 17 45C14 45 12 44 12 42V32Z" fill="white"/>
  </g>
  <g transform="translate(48, 24)">
    <!-- Second B -->
    <path d="M0 5C0 2.23858 2.23858 0 5 0H25C35 0 42 7 42 15C42 20 38 24 34 26C38 28 42 32 42 37C42 45 35 52 25 52H5C2.23858 52 0 49.7614 0 47V5Z" fill="black"/>
    <path d="M12 10C12 8 14 7 17 7C22 7 28 9 28 15C28 21 22 23 17 23C14 23 12 22 12 20V10Z" fill="white"/>
    <path d="M12 32C12 30 14 29 17 29C22 29 28 31 28 37C28 43 22 45 17 45C14 45 12 44 12 42V32Z" fill="white"/>
  </g>
</svg>
